<svg width="334" height="66" viewBox="0 0 334 66" fill="none" xmlns="http://www.w3.org/2000/svg">
<path d="M12.9259 53H1.24587L14.4053 13.1322H29.2L42.3595 53H30.6795L21.9584 24.1114H21.647L12.9259 53ZM10.7456 37.2709H32.704V45.3691H10.7456V37.2709ZM46.355 53V23.0992H56.5556V28.7834H56.867C57.49 26.9146 58.5542 25.4352 60.0596 24.345C61.565 23.2549 63.3559 22.7098 65.4324 22.7098C67.5348 22.7098 69.3452 23.2679 70.8636 24.384C72.382 25.4871 73.2969 26.9536 73.6084 28.7834H73.9199C74.426 26.9536 75.5032 25.4871 77.1513 24.384C78.7995 23.2679 80.7332 22.7098 82.9524 22.7098C85.8205 22.7098 88.1435 23.6313 89.9215 25.4741C91.7124 27.317 92.6079 29.7698 92.6079 32.8325V53H81.8623V35.5579C81.8623 34.2471 81.5313 33.2218 80.8695 32.4821C80.2076 31.7294 79.3186 31.353 78.2025 31.353C77.0994 31.353 76.2234 31.7294 75.5745 32.4821C74.9386 33.2218 74.6207 34.2471 74.6207 35.5579V53H64.3423V35.5579C64.3423 34.2471 64.0113 33.2218 63.3495 32.4821C62.6876 31.7294 61.7986 31.353 60.6825 31.353C59.9428 31.353 59.3069 31.5218 58.7748 31.8592C58.2427 32.1966 57.8274 32.6833 57.5289 33.3192C57.2434 33.9421 57.1006 34.6883 57.1006 35.5579V53H46.355ZM97.9077 53V23.0992H108.653V53H97.9077ZM103.28 19.9845C101.827 19.9845 100.581 19.5043 99.5429 18.544C98.5047 17.5836 97.9855 16.4286 97.9855 15.0789C97.9855 13.7292 98.5047 12.5742 99.5429 11.6138C100.581 10.6535 101.827 10.1733 103.28 10.1733C104.747 10.1733 105.993 10.6535 107.018 11.6138C108.056 12.5742 108.575 13.7292 108.575 15.0789C108.575 16.4286 108.056 17.5836 107.018 18.544C105.993 19.5043 104.747 19.9845 103.28 19.9845ZM114.128 53V23.0992H124.562V28.7834H124.874C125.419 26.681 126.282 25.1432 127.463 24.1698C128.657 23.1965 130.052 22.7098 131.648 22.7098C132.116 22.7098 132.576 22.7488 133.03 22.8266C133.498 22.8915 133.945 22.9889 134.374 23.1186V32.2874C133.842 32.1058 133.186 31.9695 132.408 31.8786C131.629 31.7878 130.96 31.7424 130.402 31.7424C129.351 31.7424 128.404 31.9825 127.56 32.4626C126.73 32.9298 126.074 33.5917 125.594 34.4482C125.114 35.2918 124.874 36.2846 124.874 37.4267V53H114.128ZM137.741 53V13.1322H148.487V28.3162H148.643C149.032 27.304 149.603 26.3761 150.356 25.5325C151.109 24.676 152.043 23.9946 153.159 23.4885C154.275 22.9694 155.573 22.7098 157.052 22.7098C159.025 22.7098 160.9 23.2354 162.678 24.2866C164.469 25.3378 165.923 26.9925 167.039 29.2506C168.168 31.5088 168.732 34.4418 168.732 38.0496C168.732 41.5017 168.194 44.3633 167.117 46.6344C166.052 48.9055 164.625 50.5991 162.834 51.7152C161.056 52.8313 159.103 53.3893 156.974 53.3893C155.573 53.3893 154.321 53.1622 153.217 52.708C152.127 52.2408 151.193 51.6114 150.414 50.8197C149.649 50.0151 149.058 49.1067 148.643 48.0944H148.409V53H137.741ZM148.253 38.0496C148.253 39.5031 148.442 40.7619 148.818 41.8261C149.207 42.8773 149.752 43.6949 150.453 44.2789C151.167 44.8499 152.017 45.1355 153.003 45.1355C153.99 45.1355 154.827 44.8564 155.514 44.2984C156.215 43.7274 156.747 42.9163 157.111 41.8651C157.487 40.8009 157.675 39.5291 157.675 38.0496C157.675 36.5701 157.487 35.3048 157.111 34.2536C156.747 33.1894 156.215 32.3783 155.514 31.8202C154.827 31.2492 153.99 30.9637 153.003 30.9637C152.017 30.9637 151.167 31.2492 150.453 31.8202C149.752 32.3783 149.207 33.1894 148.818 34.2536C148.442 35.3048 148.253 36.5701 148.253 38.0496ZM187.557 53.5451C184.364 53.5451 181.613 52.9351 179.303 51.7152C177.006 50.4823 175.234 48.7173 173.988 46.4203C172.755 44.1102 172.139 41.3459 172.139 38.1275C172.139 35.0387 172.762 32.3394 174.008 30.0293C175.254 27.7193 177.012 25.9218 179.283 24.637C181.554 23.3522 184.234 22.7098 187.323 22.7098C189.581 22.7098 191.625 23.0602 193.455 23.761C195.285 24.4618 196.849 25.4806 198.147 26.8173C199.444 28.141 200.444 29.7503 201.144 31.645C201.845 33.5398 202.196 35.6747 202.196 38.0496V40.5413H175.487V34.6235H192.307C192.294 33.7669 192.073 33.0142 191.645 32.3653C191.229 31.7034 190.665 31.1908 189.951 30.8274C189.25 30.4511 188.452 30.2629 187.557 30.2629C186.687 30.2629 185.889 30.4511 185.162 30.8274C184.435 31.1908 183.851 31.697 183.41 32.3458C182.982 32.9947 182.755 33.7539 182.729 34.6235V41.0085C182.729 41.9689 182.93 42.8254 183.332 43.5781C183.735 44.3308 184.312 44.9213 185.065 45.3496C185.818 45.7779 186.726 45.992 187.79 45.992C188.53 45.992 189.205 45.8882 189.815 45.6805C190.438 45.4729 190.97 45.1744 191.411 44.7851C191.852 44.3827 192.177 43.9026 192.384 43.3445H202.196C201.858 45.421 201.06 47.2249 199.801 48.7563C198.542 50.2747 196.875 51.4556 194.798 52.2992C192.735 53.1298 190.321 53.5451 187.557 53.5451ZM220.908 53.5451C217.715 53.5451 214.964 52.9351 212.654 51.7152C210.357 50.4823 208.586 48.7173 207.34 46.4203C206.107 44.1102 205.49 41.3459 205.49 38.1275C205.49 35.0387 206.113 32.3394 207.359 30.0293C208.605 27.7193 210.363 25.9218 212.635 24.637C214.906 23.3522 217.586 22.7098 220.674 22.7098C222.932 22.7098 224.976 23.0602 226.806 23.761C228.636 24.4618 230.2 25.4806 231.498 26.8173C232.796 28.141 233.795 29.7503 234.496 31.645C235.196 33.5398 235.547 35.6747 235.547 38.0496V40.5413H208.839V34.6235H225.658C225.645 33.7669 225.424 33.0142 224.996 32.3653C224.581 31.7034 224.016 31.1908 223.302 30.8274C222.602 30.4511 221.803 30.2629 220.908 30.2629C220.038 30.2629 219.24 30.4511 218.514 30.8274C217.787 31.1908 217.203 31.697 216.762 32.3458C216.333 32.9947 216.106 33.7539 216.08 34.6235V41.0085C216.08 41.9689 216.281 42.8254 216.684 43.5781C217.086 44.3308 217.663 44.9213 218.416 45.3496C219.169 45.7779 220.077 45.992 221.142 45.992C221.881 45.992 222.556 45.8882 223.166 45.6805C223.789 45.4729 224.321 45.1744 224.762 44.7851C225.204 44.3827 225.528 43.9026 225.736 43.3445H235.547C235.209 45.421 234.411 47.2249 233.152 48.7563C231.894 50.2747 230.226 51.4556 228.15 52.2992C226.086 53.1298 223.672 53.5451 220.908 53.5451ZM249.587 45.9141L249.665 33.144H251.067L258.308 23.0992H270.378L258.23 38.7504H255.194L249.587 45.9141ZM239.932 53V13.1322H250.677V53H239.932ZM258.386 53L251.534 41.1643L258.542 33.5333L270.689 53H258.386Z" fill="black"/>
<rect x="280.182" y="33.5" width="53.2955" height="19.7955" fill="#5A2DE4"/>
</svg>
