<svg width="219" height="44" viewBox="0 0 219 44" fill="none" xmlns="http://www.w3.org/2000/svg">
<path d="M8.48864 35H0.818182L9.46023 8.81818H19.1761L27.8182 35H20.1477L14.4205 16.0284H14.2159L8.48864 35ZM7.05682 24.6705H21.4773V29.9886H7.05682V24.6705ZM30.4421 35V15.3636H37.141V19.0966H37.3455C37.7546 17.8693 38.4535 16.8977 39.4421 16.1818C40.4308 15.4659 41.6069 15.108 42.9705 15.108C44.3512 15.108 45.5401 15.4744 46.5373 16.2074C47.5344 16.9318 48.1353 17.8949 48.3398 19.0966H48.5444C48.8768 17.8949 49.5842 16.9318 50.6665 16.2074C51.7489 15.4744 53.0188 15.108 54.4762 15.108C56.3597 15.108 57.8853 15.7131 59.0529 16.9233C60.229 18.1335 60.8171 19.7443 60.8171 21.7557V35H53.7603V23.5455C53.7603 22.6847 53.543 22.0114 53.1083 21.5256C52.6737 21.0312 52.0898 20.7841 51.3569 20.7841C50.6325 20.7841 50.0572 21.0312 49.631 21.5256C49.2134 22.0114 49.0046 22.6847 49.0046 23.5455V35H42.2546V23.5455C42.2546 22.6847 42.0373 22.0114 41.6026 21.5256C41.168 21.0312 40.5842 20.7841 39.8512 20.7841C39.3654 20.7841 38.9478 20.8949 38.5984 21.1165C38.2489 21.3381 37.9762 21.6577 37.7802 22.0753C37.5927 22.4844 37.4989 22.9744 37.4989 23.5455V35H30.4421ZM64.2976 35V15.3636H71.3544V35H64.2976ZM67.826 13.3182C66.8714 13.3182 66.0533 13.0028 65.3714 12.3722C64.6896 11.7415 64.3487 10.983 64.3487 10.0966C64.3487 9.21023 64.6896 8.4517 65.3714 7.82102C66.0533 7.19034 66.8714 6.875 67.826 6.875C68.7891 6.875 69.6072 7.19034 70.2805 7.82102C70.9624 8.4517 71.3033 9.21023 71.3033 10.0966C71.3033 10.983 70.9624 11.7415 70.2805 12.3722C69.6072 13.0028 68.7891 13.3182 67.826 13.3182ZM74.9499 35V15.3636H81.8022V19.0966H82.0067C82.3647 17.7159 82.9315 16.706 83.707 16.0668C84.4911 15.4276 85.4073 15.108 86.4556 15.108C86.7624 15.108 87.065 15.1335 87.3633 15.1847C87.6701 15.2273 87.9641 15.2912 88.2454 15.3764V21.3977C87.896 21.2784 87.4656 21.1889 86.9542 21.1293C86.4428 21.0696 86.0039 21.0398 85.6374 21.0398C84.9471 21.0398 84.3249 21.1974 83.771 21.5128C83.2255 21.8196 82.7951 22.2543 82.4798 22.8168C82.1644 23.3707 82.0067 24.0227 82.0067 24.7727V35H74.9499ZM90.457 35V8.81818H97.5138V18.7898H97.6161C97.8718 18.125 98.2468 17.5156 98.7411 16.9616C99.2354 16.3991 99.8491 15.9517 100.582 15.6193C101.315 15.2784 102.167 15.108 103.139 15.108C104.434 15.108 105.666 15.4531 106.833 16.1435C108.01 16.8338 108.964 17.9205 109.697 19.4034C110.439 20.8864 110.809 22.8125 110.809 25.1818C110.809 27.4489 110.456 29.3281 109.748 30.8196C109.049 32.3111 108.112 33.4233 106.936 34.1562C105.768 34.8892 104.485 35.2557 103.088 35.2557C102.167 35.2557 101.345 35.1065 100.62 34.8082C99.9045 34.5014 99.2908 34.0881 98.7795 33.5682C98.2766 33.0398 97.8888 32.4432 97.6161 31.7784H97.4627V35H90.457ZM97.3604 25.1818C97.3604 26.1364 97.484 26.9631 97.7312 27.6619C97.9869 28.3523 98.3448 28.8892 98.805 29.2727C99.2738 29.6477 99.832 29.8352 100.48 29.8352C101.127 29.8352 101.677 29.652 102.129 29.2855C102.589 28.9105 102.939 28.3778 103.177 27.6875C103.424 26.9886 103.548 26.1534 103.548 25.1818C103.548 24.2102 103.424 23.3793 103.177 22.6889C102.939 21.9901 102.589 21.4574 102.129 21.0909C101.677 20.7159 101.127 20.5284 100.48 20.5284C99.832 20.5284 99.2738 20.7159 98.805 21.0909C98.3448 21.4574 97.9869 21.9901 97.7312 22.6889C97.484 23.3793 97.3604 24.2102 97.3604 25.1818ZM123.172 35.358C121.075 35.358 119.268 34.9574 117.751 34.1562C116.243 33.3466 115.079 32.1875 114.261 30.679C113.451 29.1619 113.047 27.3466 113.047 25.233C113.047 23.2045 113.456 21.4318 114.274 19.9148C115.092 18.3977 116.247 17.2173 117.738 16.3736C119.23 15.5298 120.99 15.108 123.018 15.108C124.501 15.108 125.843 15.3381 127.045 15.7983C128.247 16.2585 129.274 16.9276 130.126 17.8054C130.978 18.6747 131.635 19.7315 132.095 20.9759C132.555 22.2202 132.785 23.6222 132.785 25.1818V26.8182H115.245V22.9318H126.291C126.282 22.3693 126.137 21.875 125.856 21.4489C125.583 21.0142 125.213 20.6776 124.744 20.4389C124.284 20.1918 123.76 20.0682 123.172 20.0682C122.6 20.0682 122.076 20.1918 121.599 20.4389C121.122 20.6776 120.738 21.0099 120.449 21.4361C120.167 21.8622 120.018 22.3608 120.001 22.9318V27.125C120.001 27.7557 120.133 28.3182 120.397 28.8125C120.662 29.3068 121.041 29.6946 121.535 29.9759C122.029 30.2571 122.626 30.3977 123.325 30.3977C123.811 30.3977 124.254 30.3295 124.654 30.1932C125.064 30.0568 125.413 29.8608 125.703 29.6051C125.993 29.3409 126.206 29.0256 126.342 28.6591H132.785C132.564 30.0227 132.039 31.2074 131.213 32.2131C130.386 33.2102 129.291 33.9858 127.927 34.5398C126.572 35.0852 124.987 35.358 123.172 35.358ZM145.074 35.358C142.977 35.358 141.17 34.9574 139.653 34.1562C138.145 33.3466 136.982 32.1875 136.163 30.679C135.354 29.1619 134.949 27.3466 134.949 25.233C134.949 23.2045 135.358 21.4318 136.176 19.9148C136.994 18.3977 138.149 17.2173 139.641 16.3736C141.132 15.5298 142.892 15.108 144.92 15.108C146.403 15.108 147.746 15.3381 148.947 15.7983C150.149 16.2585 151.176 16.9276 152.028 17.8054C152.881 18.6747 153.537 19.7315 153.997 20.9759C154.457 22.2202 154.688 23.6222 154.688 25.1818V26.8182H137.148V22.9318H148.193C148.185 22.3693 148.04 21.875 147.759 21.4489C147.486 21.0142 147.115 20.6776 146.646 20.4389C146.186 20.1918 145.662 20.0682 145.074 20.0682C144.503 20.0682 143.979 20.1918 143.501 20.4389C143.024 20.6776 142.641 21.0099 142.351 21.4361C142.07 21.8622 141.92 22.3608 141.903 22.9318V27.125C141.903 27.7557 142.036 28.3182 142.3 28.8125C142.564 29.3068 142.943 29.6946 143.438 29.9759C143.932 30.2571 144.528 30.3977 145.227 30.3977C145.713 30.3977 146.156 30.3295 146.557 30.1932C146.966 30.0568 147.315 29.8608 147.605 29.6051C147.895 29.3409 148.108 29.0256 148.244 28.6591H154.688C154.466 30.0227 153.942 31.2074 153.115 32.2131C152.288 33.2102 151.193 33.9858 149.83 34.5398C148.474 35.0852 146.889 35.358 145.074 35.358ZM163.908 30.3466L163.959 21.9602H164.88L169.635 15.3636H177.561L169.584 25.642H167.59L163.908 30.3466ZM157.567 35V8.81818H164.624V35H157.567ZM169.686 35L165.186 27.2273L169.789 22.2159L177.766 35H169.686Z" fill="white"/>
<rect x="184" y="22" width="35" height="13" fill="#5A2DE4"/>
</svg>
